<mxfile host="Electron" agent="Mozilla/5.0 (Windows NT 10.0; Win64; x64) AppleWebKit/537.36 (KHTML, like Gecko) draw.io/26.0.4 Chrome/128.0.6613.186 Electron/32.2.5 Safari/537.36" version="26.0.4">
  <diagram name="Seite-1" id="HOyfGm61N8swRw_8gBLT">
    <mxGraphModel dx="2345" dy="828" grid="1" gridSize="10" guides="1" tooltips="1" connect="1" arrows="1" fold="1" page="1" pageScale="1" pageWidth="827" pageHeight="1169" math="0" shadow="0">
      <root>
        <mxCell id="0" />
        <mxCell id="1" parent="0" />
        <mxCell id="SCJVabaA3p6mnc5F_6kQ-1" value="MetroPT2 Datenfluss" style="shape=umlFrame;whiteSpace=wrap;html=1;pointerEvents=0;recursiveResize=0;container=1;collapsible=0;width=160;" vertex="1" parent="1">
          <mxGeometry x="-340" y="40" width="610" height="370" as="geometry" />
        </mxCell>
        <mxCell id="SCJVabaA3p6mnc5F_6kQ-2" value="MessgerÃ¤t" style="html=1;whiteSpace=wrap;" vertex="1" parent="SCJVabaA3p6mnc5F_6kQ-1">
          <mxGeometry x="50" y="140" width="110" height="50" as="geometry" />
        </mxCell>
        <mxCell id="SCJVabaA3p6mnc5F_6kQ-3" value="Betriebsdaten" style="html=1;whiteSpace=wrap;" vertex="1" parent="SCJVabaA3p6mnc5F_6kQ-1">
          <mxGeometry x="50" y="260" width="110" height="50" as="geometry" />
        </mxCell>
        <mxCell id="SCJVabaA3p6mnc5F_6kQ-5" value="KI-System" style="html=1;whiteSpace=wrap;" vertex="1" parent="SCJVabaA3p6mnc5F_6kQ-1">
          <mxGeometry x="340" y="195" width="110" height="50" as="geometry" />
        </mxCell>
        <mxCell id="SCJVabaA3p6mnc5F_6kQ-6" value="Vorhersagen" style="shadow=0;dashed=0;html=1;strokeColor=none;fillColor=#4495D1;labelPosition=center;verticalLabelPosition=bottom;verticalAlign=top;align=center;outlineConnect=0;shape=mxgraph.veeam.2d.report;" vertex="1" parent="SCJVabaA3p6mnc5F_6kQ-1">
          <mxGeometry x="530" y="192.1" width="36.8" height="55.8" as="geometry" />
        </mxCell>
        <mxCell id="SCJVabaA3p6mnc5F_6kQ-7" value="Datenbank" style="strokeWidth=2;html=1;shape=mxgraph.flowchart.database;whiteSpace=wrap;" vertex="1" parent="SCJVabaA3p6mnc5F_6kQ-1">
          <mxGeometry x="230" y="190" width="60" height="60" as="geometry" />
        </mxCell>
        <mxCell id="SCJVabaA3p6mnc5F_6kQ-9" value="" style="edgeStyle=elbowEdgeStyle;elbow=horizontal;endArrow=classic;html=1;curved=0;rounded=0;endSize=8;startSize=8;entryX=0;entryY=0.5;entryDx=0;entryDy=0;entryPerimeter=0;exitX=1;exitY=0.5;exitDx=0;exitDy=0;" edge="1" parent="SCJVabaA3p6mnc5F_6kQ-1" source="SCJVabaA3p6mnc5F_6kQ-2" target="SCJVabaA3p6mnc5F_6kQ-7">
          <mxGeometry width="50" height="50" relative="1" as="geometry">
            <mxPoint x="150" y="110" as="sourcePoint" />
            <mxPoint x="200" y="60" as="targetPoint" />
          </mxGeometry>
        </mxCell>
        <mxCell id="SCJVabaA3p6mnc5F_6kQ-10" value="" style="edgeStyle=segmentEdgeStyle;endArrow=classic;html=1;curved=0;rounded=0;endSize=8;startSize=8;exitX=1;exitY=0.5;exitDx=0;exitDy=0;entryX=0.5;entryY=1;entryDx=0;entryDy=0;entryPerimeter=0;" edge="1" parent="SCJVabaA3p6mnc5F_6kQ-1" source="SCJVabaA3p6mnc5F_6kQ-3" target="SCJVabaA3p6mnc5F_6kQ-7">
          <mxGeometry width="50" height="50" relative="1" as="geometry">
            <mxPoint x="220" y="300" as="sourcePoint" />
            <mxPoint x="270" y="250" as="targetPoint" />
            <Array as="points">
              <mxPoint x="260" y="285" />
            </Array>
          </mxGeometry>
        </mxCell>
        <mxCell id="SCJVabaA3p6mnc5F_6kQ-11" value="" style="edgeStyle=elbowEdgeStyle;elbow=horizontal;endArrow=classic;html=1;curved=0;rounded=0;endSize=8;startSize=8;entryX=0;entryY=0.5;entryDx=0;entryDy=0;exitX=1;exitY=0.5;exitDx=0;exitDy=0;exitPerimeter=0;" edge="1" parent="SCJVabaA3p6mnc5F_6kQ-1" source="SCJVabaA3p6mnc5F_6kQ-7" target="SCJVabaA3p6mnc5F_6kQ-5">
          <mxGeometry width="50" height="50" relative="1" as="geometry">
            <mxPoint x="310" y="210" as="sourcePoint" />
            <mxPoint x="340" y="170" as="targetPoint" />
          </mxGeometry>
        </mxCell>
        <mxCell id="SCJVabaA3p6mnc5F_6kQ-12" value="" style="edgeStyle=elbowEdgeStyle;elbow=horizontal;endArrow=classic;html=1;curved=0;rounded=0;endSize=8;startSize=8;exitX=1;exitY=0.5;exitDx=0;exitDy=0;" edge="1" parent="SCJVabaA3p6mnc5F_6kQ-1" source="SCJVabaA3p6mnc5F_6kQ-5" target="SCJVabaA3p6mnc5F_6kQ-6">
          <mxGeometry width="50" height="50" relative="1" as="geometry">
            <mxPoint x="440" y="150" as="sourcePoint" />
            <mxPoint x="520" y="152.10000000000014" as="targetPoint" />
          </mxGeometry>
        </mxCell>
      </root>
    </mxGraphModel>
  </diagram>
</mxfile>
